# xmcd
#
# Track frame offsets: 
#        150
#        40935
#        82850
#        112897
#        155085
#        182025
#        225767
#        248070
#
# Disc length: 3682 seconds
#
# Revision: 2
# Processed by: cddbd v1.5.2PL0 Copyright (c) Steve Scherf et al.
# Submitted via: ExactAudioCopy v1.1
#
DISCID=500e6008
DTITLE=Sheer All Stars - Live @ The Blues Room
DYEAR=2001
DGENRE=Africa-Jazz
TTITLE0=meeting of the women
TTITLE1=meeting point
TTITLE2=sugar shake
TTITLE3=hymn for the ballies
TTITLE4=milagre
TTITLE5=fula
TTITLE6=langery
TTITLE7=alone in a strange place
EXTD=
EXTT0=
EXTT1=
EXTT2=
EXTT3=
EXTT4=
EXTT5=
EXTT6=
EXTT7=
PLAYORDER=
